<svg id="logotipo_allianz" data-name="logotipo allianz" xmlns="http://www.w3.org/2000/svg" width="120" height="60" viewBox="0 0 120 60">
  <rect id="Retângulo_13118" data-name="Retângulo 13118" width="120" height="60" fill="none"/>
  <g id="Grupo_18649" data-name="Grupo 18649" transform="translate(-106.229 -194.426)">
    <path id="Vector" d="M10.237.009H3.46V1.537h.577c.7,0,1.087.264,1.087.787a4.582,4.582,0,0,1-.356,1.449L0,17.872H4.413l1.309-4.331h5.168l1.222,4.331H16.9L12.143,1.411a1.759,1.759,0,0,0-1.906-1.4ZM6.4,10.565,8.442,4.041l1.8,6.528Z" transform="translate(109.229 215.29)" fill="#20407e"/>
    <path id="Vector-2" data-name="Vector" d="M4.14,0H0V1.532H.277c.708,0,1,.3,1,1V17.883h4.2V1.366A1.232,1.232,0,0,0,4.828.147,1.241,1.241,0,0,0,4.361.008,1.036,1.036,0,0,0,4.14,0Z" transform="translate(126.539 215.297)" fill="#20407e"/>
    <path id="Vector-3" data-name="Vector" d="M9.794.007A6.006,6.006,0,0,0,5.282,2.062V1.519A1.166,1.166,0,0,0,3.99.181H0V1.8H.245c.708,0,1,.319,1,1.024V13.712h4.2V4.622A3.284,3.284,0,0,1,7.888,3.5c.961,0,1.186.35,1.186,1.693v8.524h4.2v-9.2c0-2.138-.166-2.815-.866-3.543A3.441,3.441,0,0,0,9.794.007Z" transform="translate(162.701 219.451)" fill="#20407e"/>
    <path id="Vector-4" data-name="Vector" d="M10.466,2.761V.025H1.5A1.253,1.253,0,0,0,.06.866a1.243,1.243,0,0,0-.041.6V3.883H1.7v-.24c0-.614.328-.909,1-.909H5.752L.019,10.608v2.681H10.734V10.557H4.8Z" transform="translate(178.174 219.874)" fill="#20407e"/>
    <path id="Vector-5" data-name="Vector" d="M3.468,0H0V1.622H.569a.558.558,0,0,1,.364.189,1.053,1.053,0,0,1,.182.373,1.051,1.051,0,0,1,.024.414V16.5H5.053V1.587C5.053.4,4.658,0,3.468,0Z" transform="translate(206.582 215.84)" fill="#20407e"/>
    <path id="Vector-6" data-name="Vector" d="M0,1.575V12.859H3.914V0H1.6C.455,0,0,.449,0,1.575Z" transform="translate(202.126 219.458)" fill="#20407e"/>
    <path id="Vector-7" data-name="Vector" d="M14.559,0C6.255,0,0,6.122,0,14.335S6.239,28.694,14.559,28.694s14.535-6.122,14.535-14.359S22.882,0,14.559,0Zm0,25.985A11.322,11.322,0,0,1,2.811,14.335,11.3,11.3,0,0,1,14.559,2.709,11.32,11.32,0,0,1,26.31,14.335a11.355,11.355,0,0,1-11.751,11.65Z" transform="translate(195.131 210.426)" fill="#20407e"/>
    <path id="Vector-8" data-name="Vector" d="M2.309,0H0V12.874H3.914V1.575C3.914.449,3.487,0,2.309,0Z" transform="translate(213.598 219.458)" fill="#20407e"/>
    <path id="Vector-9" data-name="Vector" d="M4.136,0H0V1.532H.277c.708,0,1,.3,1,1V17.883H5.488V1.367A1.232,1.232,0,0,0,4.837.147,1.242,1.242,0,0,0,4.369.009a1.036,1.036,0,0,0-.233,0Z" transform="translate(133.956 215.295)" fill="#20407e"/>
    <path id="Vector-10" data-name="Vector" d="M2.372,0C.886,0,0,.709,0,1.894S.9,3.787,2.372,3.787s2.372-.713,2.372-1.894S3.879,0,2.372,0Z" transform="translate(142.093 215.028)" fill="#20407e"/>
    <path id="Vector-11" data-name="Vector" d="M4.081.005H0V1.627H.245c.708,0,1,.319,1,1.024V13.537h4.2V1.383A1.244,1.244,0,0,0,4.8.152,1.253,1.253,0,0,0,4.326.009a1.08,1.08,0,0,0-.245,0Z" transform="translate(141.422 219.625)" fill="#20407e"/>
    <path id="Vector-12" data-name="Vector" d="M11.486,10.918V4.575C11.486,1.173,10.3,0,6.841,0A14.383,14.383,0,0,0,3.582.394,11.335,11.335,0,0,0,.7,1.465l.921,2.567A10.284,10.284,0,0,1,5.785,2.976c1.131,0,1.546.394,1.546,1.575v.291c-1.72.268-2.258.37-3.23.587a9.61,9.61,0,0,0-1.582.508A3.814,3.814,0,0,0,.02,9.91c0,2.532,1.1,3.76,3.389,3.76a6.128,6.128,0,0,0,2.254-.429,7.912,7.912,0,0,0,1.8-1.154v.189A1.121,1.121,0,0,0,8.029,13.4a1.13,1.13,0,0,0,.421.137,1.346,1.346,0,0,0,.308,0h3.93V12.008h-.194C11.759,12,11.486,11.709,11.486,10.918ZM7.327,9.736a3.564,3.564,0,0,1-2.341,1.146c-.791,0-1.052-.394-1.052-1.358s.217-1.441.992-1.728a11.188,11.188,0,0,1,2.4-.642Z" transform="translate(148.985 219.63)" fill="#20407e"/>
  </g>
</svg>
