<svg id="logotipo_azul" data-name="logotipo azul" xmlns="http://www.w3.org/2000/svg" width="120" height="60" viewBox="0 0 120 60">
  <rect id="Retângulo_13128" data-name="Retângulo 13128" width="120" height="60" fill="none"/>
  <g id="azul-seguros-seeklogo.com" transform="translate(23 7)">
    <path id="Caminho_49287" data-name="Caminho 49287" d="M50.016,59.352l.64-1.235a4.613,4.613,0,0,0,2.407.692c1.041,0,1.458-.286,1.458-.766,0-1.327-4.3-.08-4.3-2.853,0-1.315,1.184-2.173,3.059-2.173a5.556,5.556,0,0,1,2.607.6l-.623,1.235a3.775,3.775,0,0,0-1.978-.52c-1,0-1.469.326-1.469.783,0,1.407,4.3.154,4.3,2.876,0,1.3-1.2,2.15-3.139,2.15a5.561,5.561,0,0,1-2.962-.789m14.209-2.264h-5.46a2.1,2.1,0,0,0,2.253,1.67A2.477,2.477,0,0,0,62.9,58l.875,1a3.908,3.908,0,0,1-6.644-2.436,3.462,3.462,0,0,1,3.6-3.556,3.392,3.392,0,0,1,3.516,3.6,3.626,3.626,0,0,1-.023.48m-5.466-1.081H62.7a1.9,1.9,0,0,0-1.967-1.692,1.916,1.916,0,0,0-1.978,1.692m12.6-2.922H72.9v5.9c0,2.527-1.315,3.671-3.751,3.671a5.517,5.517,0,0,1-3.385-.989l.732-1.224a4.194,4.194,0,0,0,2.567.835c1.538,0,2.213-.7,2.213-2.11V58.8a3.071,3.071,0,0,1-2.333.926,3.363,3.363,0,1,1,0-6.718,3.015,3.015,0,0,1,2.407,1ZM71.3,56.356a2.119,2.119,0,1,0-2.11,2,1.956,1.956,0,0,0,2.11-2m3.4.377V53.085h1.63v3.648c0,1.315.732,2.007,1.773,2.007s1.773-.663,1.773-2.007V53.085H81.5v3.648a3.4,3.4,0,1,1-6.8,0M84.831,54.1A2.722,2.722,0,0,1,87.3,53.011v1.55a1.665,1.665,0,0,0-.366-.04,1.9,1.9,0,0,0-2.018,2.15v3.373h-1.63V53.085h1.55Zm3.208,2.464a3.708,3.708,0,1,1,3.7,3.568,3.5,3.5,0,0,1-3.7-3.568m5.769,0a2.067,2.067,0,1,0-2.07,2.173,2.025,2.025,0,0,0,2.07-2.173m2.567,2.785.64-1.235a4.613,4.613,0,0,0,2.407.692c1.041,0,1.458-.286,1.458-.766,0-1.327-4.3-.08-4.3-2.853,0-1.315,1.184-2.173,3.059-2.173a5.556,5.556,0,0,1,2.607.6l-.623,1.235a3.775,3.775,0,0,0-1.978-.52c-1,0-1.469.326-1.469.783,0,1.407,4.3.154,4.3,2.876,0,1.3-1.2,2.15-3.139,2.15a5.561,5.561,0,0,1-2.962-.789M86.924,23.044a1.129,1.129,0,0,0-1.212,1.212V36.509c0,3.311-1.584,4.66-3.917,4.66-2.424,0-3.962-1.3-3.962-4.66V24.256a1.1,1.1,0,0,0-1.212-1.212H72.475a1.129,1.129,0,0,0-1.212,1.212V36.789c0,6.8,4.614,9.972,10.486,9.972,6.055,0,10.532-3.356,10.532-9.972V24.256a1.1,1.1,0,0,0-1.212-1.212ZM57.054,41.4,67.775,28.5a2.2,2.2,0,0,0,.56-1.492v-2.75a1.1,1.1,0,0,0-1.212-1.212H51.371a1.129,1.129,0,0,0-1.212,1.212v2.516a1.129,1.129,0,0,0,1.212,1.212h9.737L50.393,40.895a2.212,2.212,0,0,0-.56,1.492v2.75a1.1,1.1,0,0,0,1.212,1.212h16.5a1.129,1.129,0,0,0,1.212-1.212V42.621a1.1,1.1,0,0,0-1.212-1.212H57.054ZM37.579,22.626c-4.894,0-8.525,2.562-9.274,6.85-.137.795.326,1.258,1.121,1.258h3.168a1.257,1.257,0,0,0,1.3-1.069c.417-1.212,1.4-2.053,3.4-2.053,2.379,0,3.4,1.538,3.4,3.819v13.7a1.129,1.129,0,0,0,1.212,1.212h3.865a1.129,1.129,0,0,0,1.212-1.212V31.34c0-4.751-3.356-8.714-9.411-8.714M97.033,16.8a1.1,1.1,0,0,0-1.212,1.212V45.132a1.129,1.129,0,0,0,1.212,1.212h4.145a1.1,1.1,0,0,0,1.212-1.212V18.012a1.1,1.1,0,0,0-1.212-1.212Z" transform="translate(-27.613 -16.8)" fill="#061eff"/>
    <path id="Caminho_49288" data-name="Caminho 49288" d="M23.581,306.369a7.4,7.4,0,0,0,2.8-.469,2.078,2.078,0,0,0,1.4-1.675l.372-1.63c.143-.56-.137-.789-.7-.652a11.729,11.729,0,0,1-1.818.137c-2.236,0-3.168-1.069-3.168-2.47,0-2.8,4.145-5.032,16.124-6.524.7-.092.652-.886,0-.886-14.4.091-21.991,2.979-21.991,8.3-.006,3.356,2.7,5.872,6.981,5.872" transform="translate(-16.6 -276.453)" fill="#00b7ff"/>
  </g>
</svg>
