<svg id="logotipo_hdi" data-name="logotipo hdi" xmlns="http://www.w3.org/2000/svg" width="120" height="60" viewBox="0 0 120 60">
  <rect id="Retângulo_13120" data-name="Retângulo 13120" width="120" height="60" fill="none"/>
  <g id="Grupo_21207" data-name="Grupo 21207" transform="translate(15335.836 21340)">
    <path id="Vector" d="M0,23.942H7.938V0H0Z" transform="translate(-15307.902 -21331.943)" fill="#2b773b"/>
    <path id="Vector-2" data-name="Vector" d="M0,23.946H7.978V0H0Z" transform="translate(-15291.993 -21332)" fill="#2b773b"/>
    <path id="Subtração_16" data-name="Subtração 16" d="M9.07,23.925h0c-.359,0-.726-.012-1.091-.034H0V0H9.986a18.767,18.767,0,0,1,5.936,1.194,11.959,11.959,0,0,1,4.066,2.588,10.18,10.18,0,0,1,2.988,7.584,12.715,12.715,0,0,1-3.808,8.595,13.33,13.33,0,0,1-4.343,2.869A15.072,15.072,0,0,1,9.07,23.925ZM8.725,5.637a8.576,8.576,0,0,0-1.066.069V17.917c.209.014.429.021.652.021a6.682,6.682,0,0,0,4.871-1.812,6.044,6.044,0,0,0,1.713-4.339A5.982,5.982,0,0,0,8.725,5.637Z" transform="translate(-15277.935 -21332)" fill="#2b773b"/>
    <path id="Vector-3" data-name="Vector" d="M0,23.89H7.99V0H0Z" transform="translate(-15250.142 -21331.891)" fill="#2b773b"/>
    <path id="Vector-4" data-name="Vector" d="M0,7.979H7.982V0H0Z" transform="translate(-15299.975 -21323.809)" fill="#d72027"/>
    <path id="Vector-5" data-name="Vector" d="M5.922,1.966a4.242,4.242,0,0,0-2.036-.508c-1.361,0-1.929.794-1.929,1.524,0,.973.643,1.453,2.1,2.08,1.838.794,2.723,1.81,2.723,3.382,0,1.913-1.421,3.351-4,3.351A5.576,5.576,0,0,1,0,11.109L.4,9.656a5.008,5.008,0,0,0,2.485.675c1.361,0,2.123-.7,2.123-1.735,0-.973-.583-1.588-1.945-2.14C1.357,5.765.2,4.733.2,3.177.2,1.367,1.655,0,3.929,0A5.318,5.318,0,0,1,6.339.525Z" transform="translate(-15308.836 -21303.943)" fill="#282828"/>
    <path id="Vector-6" data-name="Vector" d="M6.541,8.1a6.445,6.445,0,0,1-2.62.492C1.437,8.591,0,6.927,0,4.414,0,1.961,1.377,0,3.711,0S6.958,1.929,6.958,3.97a5.6,5.6,0,0,1-.048.73H1.675A2.35,2.35,0,0,0,3.786,7.257a2.544,2.544,0,0,0,.4,0,5.183,5.183,0,0,0,2.08-.4ZM5.311,3.458c0-.985-.4-2.215-1.719-2.215S1.782,2.5,1.691,3.458Z" transform="translate(-15298.815 -21300.738)" fill="#282828"/>
    <path id="Vector-7" data-name="Vector" d="M7.386.2c-.044.584-.075,1.27-.075,2.382v4.7c0,1.644-.135,4.68-4.037,4.68a5.365,5.365,0,0,1-2.608-.6l.4-1.346a4.5,4.5,0,0,0,2.227.58C4.636,10.6,5.6,9.85,5.6,7.98V7.186H5.565A2.584,2.584,0,0,1,3.278,8.4C1.33,8.4,0,6.678,0,4.371,0,1.573,1.691,0,3.485,0A2.381,2.381,0,0,1,5.747,1.291h.032L5.85.183ZM5.577,3.371a1.85,1.85,0,0,0-1.7-1.985H3.794c-1.191,0-2.036,1.139-2.036,2.9,0,1.62.734,2.779,2.02,2.779a1.862,1.862,0,0,0,1.81-1.909V5Z" transform="translate(-15288.697 -21300.75)" fill="#282828"/>
    <path id="Vector-8" data-name="Vector" d="M6.728,5.9c0,.929.044,1.707.071,2.382H5.283L5.192,7.086H5.148A2.87,2.87,0,0,1,2.663,8.444C1.242,8.444,0,7.559,0,4.931V0H1.711V4.625c0,1.421.4,2.358,1.544,2.358A1.77,1.77,0,0,0,4.977,5.169V.016H6.716Z" transform="translate(-15277.202 -21300.57)" fill="#282828"/>
    <path id="Vector-9" data-name="Vector" d="M4.2,1.707A2.417,2.417,0,0,0,3.7,1.663c-1.167,0-1.9.957-1.9,2.382V8.412H.06V2.7C.06,1.739.06.945,0,.179H1.512l.06,1.513h.06A2.382,2.382,0,0,1,3.775,0a2.008,2.008,0,0,1,.433.048Z" transform="translate(-15266.315 -21300.738)" fill="#282828"/>
    <path id="Vector-10" data-name="Vector" d="M7.632,4.236C7.632,7.32,5.648,8.6,3.771,8.6,1.631,8.6,0,7.015,0,4.367,0,1.588,1.707,0,3.89,0,6.16,0,7.632,1.707,7.632,4.236ZM3.83,1.3C2.35,1.3,1.782,2.89,1.782,4.311c0,1.616.762,2.977,2.032,2.977S5.85,5.927,5.85,4.279C5.862,2.918,5.295,1.3,3.842,1.3Z" transform="translate(-15259.309 -21300.738)" fill="#282828"/>
    <path id="Vector-11" data-name="Vector" d="M4.648,1.753A2.988,2.988,0,0,0,3.06,1.288c-.794,0-1.191.449-1.191,1s.373.854,1.377,1.29c1.361.552,2.08,1.3,2.08,2.5,0,1.588-1.211,2.529-3.08,2.529A4.532,4.532,0,0,1,0,8.049L.4,6.763a4.064,4.064,0,0,0,1.885.556c.929,0,1.377-.449,1.377-1.084s-.345-.973-1.33-1.389C.861,4.262.218,3.436.218,2.483A2.58,2.58,0,0,1,2.9,0h.179A4.115,4.115,0,0,1,5.041.478Z" transform="translate(-15248.501 -21300.75)" fill="#282828"/>
  </g>
</svg>
