<svg id="logotipo_mapfre" data-name="logotipo mapfre" xmlns="http://www.w3.org/2000/svg" width="120" height="60" viewBox="0 0 120 60">
  <rect id="Retângulo_13129" data-name="Retângulo 13129" width="120" height="60" fill="none"/>
  <g id="Grupo_18651" data-name="Grupo 18651" transform="translate(-65.266 -191.387)">
    <path id="Caminho_20658" data-name="Caminho 20658" d="M81.865,209.387a11.6,11.6,0,1,1-11.6,11.6,11.6,11.6,0,0,1,11.6-11.6Zm0,1.1a10.494,10.494,0,1,0,10.494,10.494A10.494,10.494,0,0,0,81.865,210.492Z" transform="translate(0 0)" fill="#d90016" fill-rule="evenodd"/>
    <path id="Caminho_20659" data-name="Caminho 20659" d="M103.534,254.325v3.555H102.4v-3.555c-.544,0-1.253,0-1.522-.012l-3.773.009a1.716,1.716,0,0,1-1.8-1.784,1.41,1.41,0,0,1,.022-.234,6.779,6.779,0,0,1,2.306-3.986,1.958,1.958,0,0,1,1.456-.348,1.853,1.853,0,0,1,.92-1.115,1.405,1.405,0,0,1,.226-.1,8.072,8.072,0,0,1,5.484,0,2.1,2.1,0,0,1,1.12,1.2,1.663,1.663,0,0,1,1.383.3,7.347,7.347,0,0,1,1.589,1.861,6.74,6.74,0,0,1,.8,2.19,1.408,1.408,0,0,1,.022.234,1.716,1.716,0,0,1-1.8,1.784l-3.773-.009c-.268.01-.977.012-1.521.012Zm4.017-5.149a.579.579,0,0,0-.877.223l-1.912,3.331a.287.287,0,0,0,.264.445l3.839.01a.578.578,0,0,0,.625-.624.214.214,0,0,0,0-.056,5.641,5.641,0,0,0-1.917-3.314l-.019-.014Zm-9.173,0-.019.014a5.639,5.639,0,0,0-1.917,3.314.228.228,0,0,0,0,.056.578.578,0,0,0,.625.624l3.839-.01a.287.287,0,0,0,.265-.445L99.255,249.4a.579.579,0,0,0-.877-.223Zm6.973-1.34-.027-.011a6.936,6.936,0,0,0-4.709,0,.27.27,0,0,0-.062.03.712.712,0,0,0-.281,1.05l2.371,4.082a.354.354,0,0,0,.637.008l2.372-4.084a.712.712,0,0,0-.3-1.071Z" transform="translate(-21.1 -31.09)" fill="#d90016" fill-rule="evenodd"/>
    <path id="Caminho_20660" data-name="Caminho 20660" d="M259.1,244.551l2.832,5.8,2.833-5.8h4.283v11.6h-4.283v-5.8l-2.833,5.8-2.832-5.8v5.8h-4.283v-11.6Z" transform="translate(-155.554 -29.639)" fill="#d90016" fill-rule="evenodd"/>
    <path id="Caminho_20661" data-name="Caminho 20661" d="M361.25,246.288l-1.739,6.055h3.478l-1.739-6.055Zm-7.115,9.862,3.331-11.6h7.568l3.331,11.6h-4.283l-.547-1.9h-4.571l-.547,1.9Z" transform="translate(-239.266 -29.639)" fill="#d90016" fill-rule="evenodd"/>
    <path id="Caminho_20662" data-name="Caminho 20662" d="M458.68,245.913c.965,0,1.9.516,1.9,1.567a1.888,1.888,0,0,1-1.9,1.9h-.929v-3.471Zm2.732-1.328H453.4v11.594h4.282v-4.831h3.734a3.381,3.381,0,0,0,0-6.763Z" transform="translate(-322.931 -29.668)" fill="#d90016" fill-rule="evenodd"/>
    <path id="Caminho_20663" data-name="Caminho 20663" d="M535.383,244.551H546.77v1.9h-7.1v2.95h7.1v1.9h-7.1v4.842h-4.283Z" transform="translate(-392.036 -29.639)" fill="#d90016" fill-rule="evenodd"/>
    <path id="Caminho_20664" data-name="Caminho 20664" d="M704.431,254.245h7.1v1.9H700.148v-11.6h11.388v1.9h-7.1V249.4h7.1v1.9h-7.1Z" transform="translate(-530.912 -29.638)" fill="#d90016" fill-rule="evenodd"/>
    <path id="Caminho_20665" data-name="Caminho 20665" d="M622.672,245.906a1.7,1.7,0,0,1,1.9,1.567,1.9,1.9,0,0,1-1.9,1.9h-.928v-3.47Zm6.113,7.269v.1c0-.032,0-.063,0-.1Zm0,.1c0-.032,0-.063,0-.1a2.9,2.9,0,0,0-2.9-2.8,2.9,2.9,0,0,0,0-5.8h-8.5v11.6h4.354v-4.8h.928a1.9,1.9,0,0,1,1.9,1.9c0,.031,0,.062,0,.093v2.805h4.212Z" transform="translate(-461.157 -29.658)" fill="#d90016" fill-rule="evenodd"/>
  </g>
</svg>
