<svg id="logotipo_porto" data-name="logotipo porto" xmlns="http://www.w3.org/2000/svg" width="120" height="60" viewBox="0 0 120 60">
  <rect id="Retângulo_13128" data-name="Retângulo 13128" width="120" height="60" fill="none"/>
  <g id="Camada_1" transform="translate(20 35)">
    <g id="Grupo_21206" data-name="Grupo 21206" transform="translate(-12 -24)">
      <path id="Caminho_49279" data-name="Caminho 49279" d="M29.663,18.213c-2.983-3.657-12.822-1.743-20.486.7a.14.14,0,0,1-.194-.126C8.995,18.4,9,18.014,9,17.619a33.4,33.4,0,0,0-.489-5.812.126.126,0,0,1,.1-.143c6.344-2.314,19.123-3.03,21.311,6.444v0c.038.139-.169.221-.26.1M23.241,28.843c-.209.156-.484-.1-.3-.283,3.089-3.158,5.625-8.165-16.749,2.021-.136.062-.274-.081-.183-.192a19.346,19.346,0,0,0,2.83-8.628.135.135,0,0,1,.087-.112c14.02-5.634,29.857-5.426,14.319,7.194M4.523,3.648a.127.127,0,0,1,.071-.24c3.88.012,15.565-.278,21.587,7.4.082.131-.105.265-.226.161C24.138,9.385,19.218,6.705,7.879,9.05a.147.147,0,0,1-.179-.1C6.8,6.067,5.65,4.507,4.523,3.648M29.442,0H3.964A3.994,3.994,0,0,0,0,4.025V29.887a3.994,3.994,0,0,0,3.964,4.025H29.442a4,4,0,0,0,3.965-4.025V4.025A4,4,0,0,0,29.442,0" fill="#00a1fc"/>
      <path id="Caminho_49280" data-name="Caminho 49280" d="M295.35.23h5.825C304.2.23,306,2.1,306,4.728s-1.8,4.5-4.829,4.5h-3.068v5.513H295.35Zm5.7,6.695a2.066,2.066,0,0,0,2.28-2.2,2.066,2.066,0,0,0-2.28-2.2h-2.943v4.4h2.943Zm10.467-2.8a5.244,5.244,0,0,1,5.452,5.39,5.462,5.462,0,0,1-10.924,0A5.249,5.249,0,0,1,311.518,4.126Zm0,8.581A2.9,2.9,0,0,0,314.4,9.514a2.905,2.905,0,1,0-5.782,0A2.9,2.9,0,0,0,311.518,12.707Zm6.612-4.685a3.384,3.384,0,0,1,3.731-3.731H324.2V6.426h-1.949a1.437,1.437,0,0,0-1.576,1.6v6.716H318.13V8.025Zm7.359-6.882h2.549V4.292h2.9V6.427h-2.9v4.56a1.4,1.4,0,0,0,1.513,1.6h1.388v2.155h-1.68a3.431,3.431,0,0,1-3.773-3.648V1.143Zm11.691,2.985a5.244,5.244,0,0,1,5.452,5.39,5.462,5.462,0,0,1-10.924,0,5.249,5.249,0,0,1,5.472-5.39Zm0,8.581a2.9,2.9,0,0,0,2.881-3.193,2.905,2.905,0,1,0-5.782,0A2.9,2.9,0,0,0,337.179,12.706Z" transform="translate(-256.955 -0.2)" fill="#00a1fc"/>
      <path id="Caminho_49281" data-name="Caminho 49281" d="M294.8,156.962h2.671a2.814,2.814,0,0,0,3.089,2.671c1.628,0,2.775-.627,2.775-1.92,0-3.13-8.1-.959-8.1-6.512,0-2.4,2.128-4.112,5.238-4.112s5.2,1.774,5.322,4.508h-2.63a2.4,2.4,0,0,0-2.692-2.128c-1.607,0-2.462.71-2.462,1.732,0,3.193,8.1.772,8.1,6.47,0,2.713-2.3,4.361-5.551,4.361S294.968,160.072,294.8,156.962Z" transform="translate(-256.477 -127.969)"/>
      <path id="Caminho_49282" data-name="Caminho 49282" d="M393.687,178.561a4.839,4.839,0,0,1,5.113,5.071c0,.355-.021.668-.042.876h-7.763a2.838,2.838,0,0,0,2.9,2.775,2.231,2.231,0,0,0,2.441-1.544h2.5c-.4,2.233-2.358,3.672-4.946,3.672a5.274,5.274,0,0,1-5.364-5.468c0-2.755,1.711-5.385,5.154-5.385Zm2.547,4.257a2.412,2.412,0,0,0-2.547-2.337,2.469,2.469,0,0,0-2.63,2.337h5.175Z" transform="translate(-338.022 -155.348)"/>
      <path id="Caminho_49283" data-name="Caminho 49283" d="M475.55,183.61a4.71,4.71,0,0,1,4.967-5.05,3.648,3.648,0,0,1,3.068,1.42v-1.252h2.568v10.352c0,2.692-2.107,4.424-5.279,4.424s-5.071-1.628-5.071-4.112h2.547c.042,1.21,1,1.962,2.525,1.962,1.628,0,2.734-.918,2.734-2.275V187.2a3.5,3.5,0,0,1-3.047,1.482,4.748,4.748,0,0,1-5.009-5.071Zm5.364,2.879a2.869,2.869,0,0,0,0-5.738,2.7,2.7,0,0,0-2.817,2.859A2.723,2.723,0,0,0,480.914,186.49Z" transform="translate(-413.729 -155.348)"/>
      <path id="Caminho_49284" data-name="Caminho 49284" d="M581,190.359h-2.568v-1.628a3.479,3.479,0,0,1-3.276,1.8,3.838,3.838,0,0,1-3.923-4.174v-6.512H573.8v5.968a2.21,2.21,0,0,0,2.192,2.441,2.467,2.467,0,0,0,2.441-2.671V179.84H581v10.518Z" transform="translate(-496.971 -156.461)"/>
      <path id="Caminho_49285" data-name="Caminho 49285" d="M664.167,185.4v4.967H661.6V179.85h2.568v1.858a2.561,2.561,0,0,1,2.692-1.858h1.231V182h-1.648c-1.628,0-2.275,1.4-2.275,3.4Z" transform="translate(-575.593 -156.47)"/>
      <path id="Caminho_49286" data-name="Caminho 49286" d="M713.13,183.986a5.5,5.5,0,1,1,5.509,5.426A5.285,5.285,0,0,1,713.13,183.986Zm5.509,3.214a3.228,3.228,0,1,0-2.921-3.214A2.918,2.918,0,0,0,718.639,187.2Z" transform="translate(-620.424 -155.348)"/>
    </g>
  </g>
</svg>
