<svg id="logotipo_tokio_marine" data-name="logotipo tokio marine" xmlns="http://www.w3.org/2000/svg" xmlns:xlink="http://www.w3.org/1999/xlink" width="120" height="60" viewBox="0 0 120 60">
  <defs>
    <radialGradient id="radial-gradient" cx="0.501" cy="0.498" r="0.498" gradientTransform="matrix(1.003, 0, 0, -1.003, -0.002, 1)" gradientUnits="objectBoundingBox">
      <stop offset="0" stop-color="#fffbf2"/>
      <stop offset="0.28" stop-color="#e8b84e"/>
      <stop offset="0.6" stop-color="#c2852b"/>
      <stop offset="0.81" stop-color="#905e25"/>
      <stop offset="1" stop-color="#5f4118"/>
    </radialGradient>
    <radialGradient id="radial-gradient-2" cx="0.394" cy="0.277" r="0.758" gradientTransform="matrix(0.659, 0, 0, -0.659, 0.24, 0.682)" gradientUnits="objectBoundingBox">
      <stop offset="0" stop-color="#fffbf2"/>
      <stop offset="0.35" stop-color="#e8b84e"/>
      <stop offset="0.6" stop-color="#c2852b"/>
      <stop offset="0.81" stop-color="#905e25"/>
      <stop offset="1" stop-color="#5f4118"/>
    </radialGradient>
    <radialGradient id="radial-gradient-3" cx="0.989" cy="0.157" r="0.997" gradientTransform="matrix(0.304, 0, 0, -0.502, 0.199, 0.579)" gradientUnits="objectBoundingBox">
      <stop offset="0" stop-color="#e7efea"/>
      <stop offset="0.18" stop-color="#8cb8a6"/>
      <stop offset="0.42" stop-color="#378e74"/>
      <stop offset="0.6" stop-color="#126643"/>
      <stop offset="0.81" stop-color="#02472f"/>
      <stop offset="1" stop-color="#023623"/>
    </radialGradient>
    <radialGradient id="radial-gradient-4" cx="19685.035" cy="-5769.326" r="53.673" gradientTransform="matrix(0.009, 0, 0, -0.009, -182.88, -52.952)" xlink:href="#radial-gradient-3"/>
    <radialGradient id="radial-gradient-5" cx="15167.253" cy="-4481.895" r="53.651" gradientTransform="matrix(0.009, 0, 0, -0.009, -140.852, -41.051)" xlink:href="#radial-gradient-3"/>
  </defs>
  <rect id="Retângulo_13122" data-name="Retângulo 13122" width="120" height="60" fill="none"/>
  <g id="Grupo_21210" data-name="Grupo 21210" transform="translate(15487.918 21262.572)">
    <path id="Vector" d="M.148,10.454s1.159-1.232,4.32,1.931,5.8,6.392,5.8,6.392S6.4,3.954,8.718,4.981a13.321,13.321,0,0,1,4.169,3.3l1.739-4.492S10.619-1.133,8.123.242c0,0-4.312,3.09-3.636,6.508,0,0-3.029-2.974-3.968-.243a6.564,6.564,0,0,0-.371,3.947Z" transform="translate(-15482.647 -21246.121)" fill="#282828"/>
    <path id="Vector-2" data-name="Vector" d="M7.175,0a7.125,7.125,0,1,0,7.082,7.153V7.111A7.1,7.1,0,0,0,7.175,0Z" transform="translate(-15470.177 -21244.936)" fill="url(#radial-gradient)"/>
    <path id="Vector-3" data-name="Vector" d="M7.175,0a7.125,7.125,0,1,0,7.082,7.153V7.111A7.1,7.1,0,0,0,7.175,0Z" transform="translate(-15470.177 -21244.936)" fill="url(#radial-gradient-2)"/>
    <path id="Vector-4" data-name="Vector" d="M6.947,14.067A47.393,47.393,0,0,1,2.341,3.519,14.2,14.2,0,0,1,1.955,0,13.858,13.858,0,0,0,0,7.118v.154A25.338,25.338,0,0,0,6.255,18.725a13.826,13.826,0,0,0,2.751,1.39l2,.572a13.365,13.365,0,0,0,1.611.228C11.437,20.15,9.331,18.307,6.947,14.067Z" transform="translate(-15483.918 -21239.883)" fill="url(#radial-gradient-3)"/>
    <path id="Vector-5" data-name="Vector" d="M14.352,22.564A40.461,40.461,0,0,1,8.746,14.4C7.2,11.259,3.337,3.542,4.824,0A13.707,13.707,0,0,0,.215,2.406,5.737,5.737,0,0,0,.18,5.388C.74,7.953,3.391,16.2,7.162,21.115c1.507,1.966,3.091,4.09,4.482,5.021a4.177,4.177,0,0,0,.908.46,13.629,13.629,0,0,0,4.47-2.24,5.935,5.935,0,0,1-2.67-1.781Z" transform="translate(-15478.909 -21246.041)" fill="url(#radial-gradient-4)"/>
    <path id="Vector-6" data-name="Vector" d="M11.458,15.87a29.028,29.028,0,0,1-5.2-7.841C5.616,6.253,4.77,4.052,4.835,2.623c0-.27.062-.649.259-.772a1.252,1.252,0,0,1,.518-.2.611.611,0,0,1,.147,0A14.5,14.5,0,0,0,.381,0c-.363.521-.6,1.545-.07,3.507,1.035,3.8,3.28,11.031,8.361,16.09A3.3,3.3,0,0,0,11.184,20.8,13.766,13.766,0,0,0,12.9,16.029a1.283,1.283,0,0,1-1.437-.158Z" transform="translate(-15469.467 -21246.572)" fill="url(#radial-gradient-5)"/>
    <path id="Vector-7" data-name="Vector" d="M5.637.094H5.575a1.094,1.094,0,0,1-.46.07H.78A.935.935,0,0,1,.51.11H.41L0,1.508H.139A1.743,1.743,0,0,1,1.36,1.095h.873V6.116c0,.436-.039.954-.429,1.1H1.766v.135H3.987V7.228l-.031-.019c-.514-.3-.522-.676-.522-1.244v-4.9h.9c.332,0,.723.046.854.386v.039H5.3L5.691.09ZM2.546,13.049c0,1.271,1.1,1.761,2.071,2.2.808.363,1.576.711,1.576,1.441s-.846,1.051-1.453,1.051a3.586,3.586,0,0,1-2.28-.873l-.151-.131.363,1.568h.035a5.411,5.411,0,0,0,1.932.324c1.6,0,2.9-1.024,2.9-2.283,0-1.1-1.1-1.614-2.067-2.059-.815-.386-1.58-.734-1.58-1.367s.7-.908,1.3-.908a2.319,2.319,0,0,1,1.619.657l.112.112V11.365H6.881a5.349,5.349,0,0,0-1.6-.236c-1.26,0-2.728.5-2.728,1.931Zm51.62,1.715a2.573,2.573,0,0,1,2.392-2.746h.236a2.785,2.785,0,0,1,2.6,2.951v.062a2.538,2.538,0,0,1-2.353,2.7,2.17,2.17,0,0,1-.224,0,2.843,2.843,0,0,1-2.651-2.978Zm-.232-2.514a3.653,3.653,0,0,0-1.105,2.611A3.778,3.778,0,0,0,56.6,18.649h.166a3.863,3.863,0,0,0,3.96-3.762V14.81a3.63,3.63,0,0,0-1.07-2.576,3.864,3.864,0,0,0-2.79-1.12,3.988,3.988,0,0,0-2.933,1.159Zm-6.228-.058a2.457,2.457,0,0,1,2.747,2.132,2.575,2.575,0,0,1,0,.622c0,1.931-1.515,2.63-2.929,2.63a4.024,4.024,0,0,1-.711-.066V12.322a4.09,4.09,0,0,1,.893-.108Zm-2.5-.9H45.14v.147h.046c.437.127.429.722.421,1.209v4.388c0,.541,0,.962-.44,1.267H45.14v.131h2.635c2.38,0,4.041-1.5,4.041-3.654s-1.545-3.526-3.991-3.526ZM71.344,12.45c.1.266.885,2.317.947,2.456h-1.9C70.448,14.752,71.24,12.716,71.344,12.45Zm.7-1.159H70.3v.147h.046a.363.363,0,0,1,.251.178c.085.174-.019.44-.112.672l-.019.054L68.7,16.81l-.058.151a2.46,2.46,0,0,1-.738,1.209,7.209,7.209,0,0,1-1.461-1.325l-1.468-1.862a2.117,2.117,0,0,0,1.642-1.931c0-1.089-.889-1.792-2.26-1.792H61.77V11.4h.046c.44.166.433.772.425,1.255v4.361c0,.46,0,1.089-.425,1.248H61.77v.143h2.156v-.143h-.043c-.386-.139-.437-.66-.437-1.1V12.16a5.5,5.5,0,0,1,.661-.077,1.329,1.329,0,0,1,.981.344,1.073,1.073,0,0,1,.321.772c0,1.043-1.117,1.367-1.781,1.468h-.1l1.028,1.6,1.3,1.622a1.441,1.441,0,0,0,1.279.56h2.608V18.3h-.039c-.243-.089-.34-.209-.34-.386a1.977,1.977,0,0,1,.166-.626l.537-1.468H72.65c.031.077.556,1.468.556,1.468l.05.131a2,2,0,0,1,.178.572c0,.147-.1.209-.34.321h-.039v.139h2.318v-.139h-.035a2.225,2.225,0,0,1-.95-1.332l-.058-.154-2.214-5.539ZM40.539,12.45c.1.266.889,2.317.947,2.456h-1.9c.058-.154.85-2.19.954-2.456Zm.7-1.159H39.507v.147h.046a.386.386,0,0,1,.251.178c.081.174-.023.44-.112.672l-.019.054L37.9,16.81l-.058.151a2.452,2.452,0,0,1-.734,1.213,7.22,7.22,0,0,1-1.461-1.325l-1.468-1.866a2.117,2.117,0,0,0,1.638-1.931c0-1.089-.885-1.792-2.256-1.792H30.972V11.4h.039c.444.17.437.772.429,1.255v4.361c0,.46,0,1.089-.425,1.248h-.043v.143h2.152v-.143h-.042c-.386-.139-.437-.66-.437-1.1V12.16a5.318,5.318,0,0,1,.661-.077,1.322,1.322,0,0,1,.978.344,1.043,1.043,0,0,1,.321.772c0,1.043-1.113,1.367-1.777,1.468h-.1l1.028,1.6,1.3,1.622a1.441,1.441,0,0,0,1.279.56h2.612v-.139H38.9c-.243-.093-.34-.212-.34-.386a2.031,2.031,0,0,1,.166-.622l.537-1.472h2.581L42.4,17.3l.054.127a2.127,2.127,0,0,1,.174.572c0,.147-.1.212-.34.321H42.25v.139h2.318v-.135h-.035a2.209,2.209,0,0,1-.947-1.332l-.062-.154L41.3,11.3Zm-11.9,0H27.259v.143H27.3c.44.166.433.8.425,1.267v3.418a1.317,1.317,0,0,1-.209.888,1.8,1.8,0,0,1-1.5.722c-1.086,0-1.619-.66-1.619-2.024v-3c0-.463,0-1.1.425-1.271h.043V11.3H22.723v.143h.042c.44.166.433.792.425,1.248v3.09a2.776,2.776,0,0,0,.556,2.074,2.643,2.643,0,0,0,1.971.772,2.81,2.81,0,0,0,2.013-.772v.606h1.685v-.143h-.039c-.452-.17-.44-.8-.437-1.271V12.709c0-.467,0-1.1.437-1.275l.058-.023-.046-.135ZM14.474,14.926c0,2.259,1.723,3.716,4.381,3.716a12.824,12.824,0,0,0,2.488-.313l.139-.027-.035-.073a.977.977,0,0,1-.046-.386V15.316a1.193,1.193,0,0,1,.046-.436h0v-.112H19.694v.143h.042c.413.166.444.6.444,1.159v1.487a5.094,5.094,0,0,1-1.41.193,2.936,2.936,0,0,1-2.967-2.9v-.062a2.7,2.7,0,0,1,2.608-2.769h.243a2.589,2.589,0,0,1,1.839.622v.023h.128V11.307h-.05a8.2,8.2,0,0,0-1.681-.182c-2.658,0-4.443,1.545-4.443,3.808Zm-1.746-3.689h-.046a.746.746,0,0,1-.386.05H8.751v.139h.042c.448.166.444.807.437,1.271v4.326c0,.467,0,1.1-.437,1.267H8.751v.143h4.536l.522-1.545h-.166a2.558,2.558,0,0,1-1.913.618l-1.287-.124V15.026h.75c.317,0,.711,0,.858.267v.035h.135V14.057h-.112a1.067,1.067,0,0,1-.44.058h-1.2V12.245a5.662,5.662,0,0,1,1.02-.07,1.418,1.418,0,0,1,1.2.386l.019.023H12.8V11.241ZM76.093.118h-.046a.8.8,0,0,1-.386.046H72.117V.3h.043c.456.17.444.815.44,1.278V5.93c0,.467,0,1.108-.44,1.267h-.043v.135h4.536l.518-1.545h-.139a2.585,2.585,0,0,1-1.932.622l-1.294-.124V3.906h.773c.317,0,.715,0,.858.27l.019.031h.127V2.949h-.108a1.059,1.059,0,0,1-.44.058h-1.2V1.122a6.053,6.053,0,0,1,1.024-.066,1.43,1.43,0,0,1,1.205.386l.019.023h.12V.118Zm-5.409.05H68.752V.3h.031c.51.294.522.668.522,1.232V5.505L65.525.685,65.382.473a.583.583,0,0,1-.155-.251V.179H63.617V.311h.031c.522.305.522.7.522,1.3V5.9c0,.6,0,1-.533,1.309h-.031v.127h2V7.2h-.031c-.514-.305-.522-.68-.522-1.248V1.921l3.535,4.523A2.975,2.975,0,0,0,70.15,7.688l.081.027v-6.1c0-.6,0-1,.522-1.3h.031V.183Zm-8.771,0H59.838V.3h.039c.444.166.437.772.429,1.259V5.926c0,.471,0,1.112-.429,1.271h-.039v.135h2.137V7.2H61.94c-.444-.17-.437-.807-.433-1.271V1.6c0-.471,0-1.112.433-1.282h.035V.183Zm-8.983,0h-.062V.3h.039c.444.166.437.772.429,1.259V5.946c0,.46,0,1.093-.429,1.251h-.039v.139h2.148V7.2h-.039c-.386-.143-.44-.664-.44-1.108V1.033A5.562,5.562,0,0,1,55.2.956a1.333,1.333,0,0,1,.985.344,1.07,1.07,0,0,1,.325.772c0,1.047-1.12,1.375-1.789,1.475h-.089l1.028,1.6,1.3,1.622a1.441,1.441,0,0,0,1.279.56h1.186l-.182-.112a7.24,7.24,0,0,1-1.669-1.456L56.1,3.887a2.117,2.117,0,0,0,1.646-1.931c0-1.089-.885-1.792-2.256-1.792ZM48.316,1.326c.1.255.9,2.317.954,2.476H47.339c.054-.147.862-2.221.958-2.476Zm.7-1.159H47.281V.307h.042a.386.386,0,0,1,.255.185c.081.174-.023.44-.116.676l-.019.054L45.67,5.695l-.058.151a2.147,2.147,0,0,1-.943,1.34h-.031v.131h2.075V7.182H46.67a.514.514,0,0,1-.313-.239.44.44,0,0,1-.031-.154,2.282,2.282,0,0,1,.166-.637l.541-1.472h2.589l.56,1.472.05.131a2.128,2.128,0,0,1,.174.572c0,.147-.1.216-.34.328h-.035v.131h2.3V7.186H52.3a2.256,2.256,0,0,1-.954-1.336l-.058-.154L49.062.152Zm-5.676,0h-1.9V.241a1.753,1.753,0,0,1-.155.641L39.619,5.293,37.687.7,37.656.627a.965.965,0,0,1-.108-.386V.179H35.554V.311h.031c.406.224.355.56.309.854v.081l-.61,4.511v.054a2.1,2.1,0,0,1-.568,1.41H34.7v.12h1.851V7.209h-.035a.61.61,0,0,1-.363-.645,4.362,4.362,0,0,1,.054-.595s.522-4.044.576-4.461l1.932,4.635a2.7,2.7,0,0,0,.95,1.332l.066.046,2.318-5.994c.05.44.576,4.928.576,4.928,0,.363-.07.633-.386.742h-.043v.139H44.36V7.224h-.023a1.236,1.236,0,0,1-.525-1.081L43.112.89c0-.108.023-.487.286-.564h.046V.187ZM26.092,3.644A2.584,2.584,0,0,1,28.491.89h.236a2.789,2.789,0,0,1,2.647,2.935.332.332,0,0,1,0,.062,2.542,2.542,0,0,1-2.353,2.7h-.228A2.851,2.851,0,0,1,26.138,3.64Zm-.185-2.522A3.645,3.645,0,0,0,24.8,3.733a3.775,3.775,0,0,0,3.763,3.789h.17a3.863,3.863,0,0,0,3.972-3.758V3.682a3.645,3.645,0,0,0-1.074-2.561A3.865,3.865,0,0,0,28.843,0,4.011,4.011,0,0,0,25.906,1.16ZM23.673.164H21.6V.3h.039c.444.166.437.772.429,1.259V5.93c0,.467,0,1.108-.429,1.267H21.6v.135h2.137V7.2H23.7c-.44-.17-.433-.8-.429-1.267V1.6c0-.467,0-1.108.429-1.278h.039V.187Zm-6.738,0h-2.1V.3h.039c.448.189.448.823.448,1.29V5.915c0,.471,0,1.112-.44,1.282h-.039v.135H17V7.2h-.043c-.452-.17-.444-.815-.437-1.278V1.593c0-.471,0-1.112.437-1.271H17V.183Zm1.325,0H18.2V.3h.035a.448.448,0,0,1,.278.27c.062.255-.2.61-.429.919l-.151.209L16.518,3.6,18.9,6.846a1.612,1.612,0,0,0,1.244.483H21.2V7.2h-.035a3.365,3.365,0,0,1-1.252-.989L17.8,3.4,20.285.179h-.124ZM7.2,3.64A2.584,2.584,0,0,1,9.6.886h.236a2.789,2.789,0,0,1,2.608,2.939v.062a2.542,2.542,0,0,1-2.353,2.7H9.86A2.851,2.851,0,0,1,7.206,3.64Zm-.22-2.518A3.649,3.649,0,0,0,5.869,3.733,3.778,3.778,0,0,0,9.636,7.522H9.8a3.863,3.863,0,0,0,3.972-3.758V3.682A3.63,3.63,0,0,0,12.7,1.122,3.865,3.865,0,0,0,9.911,0,4,4,0,0,0,6.978,1.16Z" transform="translate(-15449.757 -21242.195)" fill="#282828"/>
  </g>
</svg>
