<svg id="logotipo_zurich" data-name="logotipo zurich" xmlns="http://www.w3.org/2000/svg" width="120" height="60" viewBox="0 0 120 60">
  <rect id="Retângulo_13121" data-name="Retângulo 13121" width="120" height="60" fill="none"/>
  <g id="Grupo_21209" data-name="Grupo 21209" transform="translate(15613.006 21259.705)">
    <path id="Vector" d="M4.328,8.65c.575.192.587.2.837-.245A3.889,3.889,0,0,1,8.734,6.37c1.333-.034,2.669-.057,4-.084a.971.971,0,0,1,.222.023L2.591,19.493A11.758,11.758,0,0,1,3.412,3.848,12.69,12.69,0,0,1,9.845.294a12.99,12.99,0,0,1,7.388.563,12.51,12.51,0,0,1,5.778,4.484,11.821,11.821,0,0,1-.039,13.688,12.516,12.516,0,0,1-5.8,4.453,12.991,12.991,0,0,1-7.391.523,12.684,12.684,0,0,1-6.413-3.589,7.379,7.379,0,0,1,2.606-.671,21.742,21.742,0,0,1,5.366.287c1.253.169,2.51.356,3.771.414a5.281,5.281,0,0,0,5.06-2.805,8.005,8.005,0,0,0,.96-2.3c-.476-.253-.527-.238-.793.2a5.275,5.275,0,0,1-4.077,2.828,21,21,0,0,1-2.947.023,40.882,40.882,0,0,0-5.243-.115L18.462,4.833c-.163,0-.27-.027-.373-.027H5.648c-.163,0-.321-.034-.4.207-.3,1.15-.619,2.323-.928,3.484a1.178,1.178,0,0,0,0,.153Z" transform="translate(-15565.431 -21252.705)" fill="#224191"/>
    <path id="Vector-2" data-name="Vector" d="M0,0H3.847C3.764.111,3.7.2,3.641.276a2.072,2.072,0,0,0-.476,1.3c0,1.039,0,2.077-.02,3.116a1.634,1.634,0,0,0,.02.3H8.622a1.088,1.088,0,0,0,.028-.172V1.679A2.1,2.1,0,0,0,8.486.773,2.161,2.161,0,0,0,7.947.015h3.76a5,5,0,0,0-.488.9,4.342,4.342,0,0,0-.151,1.2V9.823a2.445,2.445,0,0,0,.7,2H7.991s-.02-.034,0-.042a2.291,2.291,0,0,0,.548-.836,2.228,2.228,0,0,0,.134-.981V6.784a1.635,1.635,0,0,0-.02-.3H3.185c0,.111-.024.207-.024.3V9.961a2.4,2.4,0,0,0,.115.992,2.456,2.456,0,0,0,.511.867H.024A2.535,2.535,0,0,0,.75,9.635V2.254A2.506,2.506,0,0,0,0,0Z" transform="translate(-15530.053 -21219.904)" fill="#27245e"/>
    <path id="Subtração_17" data-name="Subtração 17" d="M6.1,6.577A45.514,45.514,0,0,0,11.144,11.8l-.024.088c-.888-.034-1.781,0-2.657-.123A3.353,3.353,0,0,1,6.48,10.509C5.453,9.386,4.465,8.232,3.462,7.09L3.2,6.8a2.57,2.57,0,0,0-.036.322V9.873a2.332,2.332,0,0,0,.694,1.966H0c.837-.659.742-1.533.746-2.38V1.947A2.206,2.206,0,0,0,.032.031,1.473,1.473,0,0,1,.214,0C1.959.023,3.7.027,5.441.077A4.439,4.439,0,0,1,7.717.747a2.842,2.842,0,0,1,.7,4.452,3.022,3.022,0,0,1-.7.561A15.3,15.3,0,0,1,6.1,6.577ZM3.228,1.364a.44.44,0,0,0-.04.1V5.55c0,.172.083.23.25.218A4.739,4.739,0,0,0,5.75,5.12a2.042,2.042,0,0,0,.654-.7,1.956,1.956,0,0,0,.045-1.836,2.032,2.032,0,0,0-.619-.731,4.433,4.433,0,0,0-2.6-.487Z" transform="translate(-15560.626 -21219.896)" fill="#27245e"/>
    <path id="Vector-3" data-name="Vector" d="M8.205,0h3.637a8.051,8.051,0,0,0-.52,1.169,4.055,4.055,0,0,0-.063,1.077Q11.235,5,11.223,7.753c0,2.959-2.149,4.189-4.362,4.423a7.154,7.154,0,0,1-3.375-.345A3.863,3.863,0,0,1,.71,8.194C.642,6.086.65,3.978.646,1.866A2.222,2.222,0,0,0,0,0H3.835a.331.331,0,0,1-.052.119,2.338,2.338,0,0,0-.559,1.533c0,2.219,0,4.438.048,6.653a2.218,2.218,0,0,0,2.185,2.227A3.778,3.778,0,0,0,7.2,10.4a2.217,2.217,0,0,0,1.121-.738,2.1,2.1,0,0,0,.465-1.232c.063-.916.071-1.836.079-2.752V1.713A2.013,2.013,0,0,0,8.74.783,2.073,2.073,0,0,0,8.205,0Z" transform="translate(-15574.688 -21219.896)" fill="#27245e"/>
    <path id="Vector-4" data-name="Vector" d="M4.116,10.41c2.649,0,5.255.226,7.642-1.2a1.616,1.616,0,0,1-.059.218c-.337.767-.666,1.5-1.019,2.246a.426.426,0,0,1-.129.142.444.444,0,0,1-.18.073H.155A.962.962,0,0,1,0,11.851L7.436,1.584c-1.142,0-2.264-.038-3.379,0a8.252,8.252,0,0,0-3.3.935A17.546,17.546,0,0,0,1.547.825C1.761.173,2.13-.014,2.843,0,5.62.051,8.4,0,11.172,0H11.6Z" transform="translate(-15588.006 -21219.959)" fill="#27245e"/>
    <path id="Vector-5" data-name="Vector" d="M10.456,9.771V11.78c0,.05-.087.123-.151.142a9.741,9.741,0,0,1-6.98-.172A5.694,5.694,0,0,1,.014,6.027C.24,2.5,3.02.527,5.931.117A11,11,0,0,1,10.1.3a.366.366,0,0,1,.147.041.354.354,0,0,1,.116.1.34.34,0,0,1,.063.135.334.334,0,0,1,0,.148c-.02.609,0,1.219,0,1.767A19.13,19.13,0,0,0,8.4,1.8a4.96,4.96,0,0,0-3.458.383,4.281,4.281,0,0,0-2.32,3.76A4.968,4.968,0,0,0,2.913,8.1a4.35,4.35,0,0,0,5.429,2.61,7.461,7.461,0,0,0,1.075-.383C9.75,10.17,10.075,9.971,10.456,9.771Z" transform="translate(-15542.579 -21220.227)" fill="#27245e"/>
    <path id="Vector-6" data-name="Vector" d="M3.807.019a2,2,0,0,0-.522.71,1.941,1.941,0,0,0-.16.857q0,4.216-.028,8.432a2.3,2.3,0,0,0,.156.971,2.361,2.361,0,0,0,.55.826H.067c0-.027-.02-.057,0-.065A2.556,2.556,0,0,0,.6,10.857,2.494,2.494,0,0,0,.726,9.834V1.786A2.013,2.013,0,0,0,.589.807,2.079,2.079,0,0,0,0,0Z" transform="translate(-15548.339 -21219.908)" fill="#27245e"/>
  </g>
</svg>
