<svg viewBox="20 15 120 105" fill="none" xmlns="http://www.w3.org/2000/svg">
  <circle cx="80" cy="72" r="34" fill="#7B68EE"/>
  <polygon points="52,48 44,22 68,42" fill="#7B68EE"/>
  <polygon points="108,48 116,22 92,42" fill="#7B68EE"/>
  <polygon points="54,46 48,28 66,43" fill="#C8BEF5" opacity="0.5"/>
  <polygon points="106,46 112,28 94,43" fill="#C8BEF5" opacity="0.5"/>
  <ellipse cx="68" cy="70" rx="9" ry="10" fill="#F5F2FF"/>
  <ellipse cx="92" cy="70" rx="9" ry="10" fill="#F5F2FF"/>
  <ellipse cx="68" cy="71" rx="5" ry="7" fill="#1A1A3E"/>
  <ellipse cx="92" cy="71" rx="5" ry="7" fill="#1A1A3E"/>
  <circle cx="70" cy="68" r="2" fill="white"/>
  <circle cx="94" cy="68" r="2" fill="white"/>
  <path d="M80 44 Q85 38 88 44 Q84 41 80 44Z" fill="#FFD166"/>
  <polygon points="80,80 77,85 83,85" fill="#C8BEF5"/>
  <path d="M77,85 Q80,89 83,85" stroke="#4A4494" stroke-width="1.5" fill="none" stroke-linecap="round"/>
</svg>
